<?xml version="1.0" encoding="utf-8"?>
<!-- Generator: Adobe Illustrator 25.2.1, SVG Export Plug-In . SVG Version: 6.00 Build 0)  -->
<svg version="1.1" id="Capa_1" xmlns="http://www.w3.org/2000/svg" xmlns:xlink="http://www.w3.org/1999/xlink" x="0px" y="0px"
	 viewBox="0 0 540.6 120.4" style="enable-background:new 0 0 540.6 120.4;" xml:space="preserve">
<g>
	<polygon points="14,65.2 77.6,65.2 77.6,51.4 14,51.4 14,16.6 81.6,16.6 81.6,2.8 0,2.8 0,117.6 84.4,117.6 84.4,103.8 14,103.8 	
		"/>
	<path d="M481.3,0C446.4,0,422,24.8,422,60.2s24.4,60.2,59.3,60.2s59.3-24.8,59.3-60.2S516.2,0,481.3,0z M481.3,106.6
		c-26.2,0-44.5-19.1-44.5-46.4s18.3-46.4,44.5-46.4s44.5,19.1,44.5,46.4S507.5,106.6,481.3,106.6z"/>
	<polygon points="214.4,117.6 229,117.6 229.4,60.7 229.4,3.4 214.4,3.4 	"/>
	<polygon points="285.9,3.4 243.3,47 243.3,67.4 250.8,59.8 250.8,59.8 306.8,3.4 	"/>
	<polygon points="259.2,71.9 291.2,117.6 309.4,117.6 269.9,61.1 	"/>
</g>
</svg>
