<?xml version="1.0" encoding="utf-8"?>
<!-- Generator: Adobe Illustrator 25.2.1, SVG Export Plug-In . SVG Version: 6.00 Build 0)  -->
<svg version="1.1" id="Capa_1" xmlns="http://www.w3.org/2000/svg" xmlns:xlink="http://www.w3.org/1999/xlink" x="0px" y="0px"
	 viewBox="0 0 362.7 80.5" style="enable-background:new 0 0 362.7 80.5;" xml:space="preserve">
<g>
	<path d="M10.5,20.9v4.9H0v9.9h10.5V79h11.6V35.7h16.6v-9.9H22.1v-4.9c0-8.3,5-11.2,9.6-11.2c2.9,0.1,5.7,0.9,8.1,2.5l4.1-8.3
		C40,1.4,35.5,0.1,30.8,0C21.5,0,10.5,5.5,10.5,20.9z"/>
	<rect x="52" y="1.5" width="11.5" height="77.5"/>
	<rect x="78" y="24.8" width="11.6" height="54.2"/>
	<path d="M83.8,1L83.8,1c-3.4,0-7.1,2.2-7.1,7s3.7,7,7.1,7s7.1-2.2,7.1-7S87.2,1,83.8,1z"/>
	<path d="M130.8,23.3c-17.2,0-28.8,11.4-28.8,28.3c0,17.8,11.4,28.9,29.8,28.9c8.7,0,17.3-3,22.6-8l-7.3-7.2
		c-3.8,3.2-10.2,4.8-15.1,4.8c-9.9,0-16.9-5.1-17.9-13l-0.2-1.3h44.2c0.8-10.5-1.5-19-6.5-24.6C146.9,26,139.7,23.3,130.8,23.3z
		 M113.9,46.6l0.4-1.5c2.1-7.4,8.4-11.8,16.9-11.8c9.1,0,14.8,4.4,15.8,12l0.2,1.3H113.9z"/>
	<path d="M214.4,36.5c-2.2-0.4-4.4-0.7-6.6-0.9c0,0,4.6-0.8,6.6-1.4c7.7-1.7,11.2-7.7,11.2-12.9c0-14.7-13-21.2-25.9-21.2
		s-26,7.3-26,21.4V79h12.7c0-4.1,0-9.3-0.1-14.5c0-5.8-0.1-11.7-0.1-16.3V21.3c0.2-6.5,5.6-10.6,13.7-10.6c2.2,0,7.5,0.4,10.9,3.9
		c1.7,1.8,2.6,4.3,2.4,6.8c-0.2,6.4-7.4,8.6-14,8.6h-3.9v11h4.2c9.3,0,19.2,5.3,19.2,15.2c0.1,4-1.7,7.8-4.8,10.2
		c-3,2.3-8.7,4.6-18.8,2.3l0.1,10.3c11.2,2.5,21.3,1,27.8-4.2c5.4-4.2,8.2-10.9,8.2-19.1C231.3,48.7,226.9,39.4,214.4,36.5z"/>
	<path d="M269.3,23.3c-17.2,0-28.8,11.4-28.8,28.3c0,17.8,11.4,28.9,29.8,28.9c8.7,0,17.3-3,22.6-8l-7.3-7.2
		c-3.8,3.2-10.2,4.8-15,4.8c-9.9,0-16.9-5.1-17.9-13l-0.2-1.3h44.2c0.8-10.5-1.4-19-6.5-24.6C285.5,26,278.3,23.3,269.3,23.3z
		 M252.5,46.6l0.4-1.5c2.1-7.4,8.4-11.8,16.9-11.8c9.1,0,14.8,4.4,15.8,12l0.2,1.3H252.5z"/>
	<path d="M340,24.1c-6.5,0-12,2.5-17.7,8.1l-1.7,1.7v-9h-11.3V79h11.5V51.4c0-9.6,6.7-16.9,15.5-16.9s14.8,6.4,14.8,16.2V79h11.6
		V50.6C362.7,34.7,353.6,24.1,340,24.1z"/>
</g>
</svg>
