<?xml version="1.0" encoding="utf-8"?>
<!-- Generator: Adobe Illustrator 25.2.1, SVG Export Plug-In . SVG Version: 6.00 Build 0)  -->
<svg version="1.1" id="Capa_1" xmlns="http://www.w3.org/2000/svg" xmlns:xlink="http://www.w3.org/1999/xlink" x="0px" y="0px"
	 viewBox="0 0 700.4 134.6" style="enable-background:new 0 0 700.4 134.6;" xml:space="preserve">
<style type="text/css">
	.st0{fill:#FFFFFF;}
</style>
<path class="st0" d="M94.6,132.4h-13V24.2L52,85.6h-9.7L12.4,24v108.4H0V2.3h16.2l31.5,64.2L78.8,2.3h15.8
	C94.6,2.3,94.6,132.4,94.6,132.4z"/>
<path class="st0" d="M247.8,132.4H234l-12.3-42.3h-41l-12.5,42.3H155L194.2,1.8h14.9L247.8,132.4z M183.6,78.6h34.7l-17.2-59.1
	L183.6,78.6z"/>
<path class="st0" d="M344.6,134.6c-25.9,0-42-14.6-42-38.2V39.7c0-23.3,17.3-39.7,42-39.7c22.8,0,39.3,13.8,39.3,32.9v11h-12.8v-9.2
	c0-13.7-10.5-22.6-26.9-22.6c-17.1,0-28.1,11.1-28.1,28.3v55.1c0,17.2,10.4,27,28.6,27c22,0,26.7-13.2,26.7-24.2V76.1h-27.9V64.4h41
	v35.5C384.6,120.7,368.5,134.6,344.6,134.6z"/>
<path class="st0" d="M547.2,132.4h-13V24.2l-29.6,61.3h-9.7L465,24v108.4h-12.5V2.3h16.2l31.5,64.2l31.2-64.2h15.8V132.4z"/>
<path class="st0" d="M700.4,132.4h-13.8l-12.3-42.3h-41.1l-12.5,42.3h-13.1L646.8,1.8h14.9L700.4,132.4z M636.2,78.6h34.7
	l-17.2-59.1L636.2,78.6z"/>
</svg>
