<?xml version="1.0" encoding="utf-8"?>
<!-- Generator: Adobe Illustrator 25.4.0, SVG Export Plug-In . SVG Version: 6.00 Build 0)  -->
<svg version="1.1" id="_x30_" xmlns="http://www.w3.org/2000/svg" xmlns:xlink="http://www.w3.org/1999/xlink" x="0px" y="0px"
	 viewBox="0 0 590.1 216.1" style="enable-background:new 0 0 590.1 216.1;" xml:space="preserve">
<style type="text/css">
	.st0{fill:#FF6000;}
</style>
<path class="st0" d="M578.4,134.2c-3.5-2.3-7.6-3.5-11.8-3.5h-2.2c-7.4,0-14.3,3.7-18.3,9.9c-4.4,6.7-10.2,12.5-16.9,16.9
	c-27.4,18.1-64.4,10.5-82.5-16.9s-10.5-64.4,16.9-82.5c27.4-18,64.3-10.4,82.4,17c4.1,6.2,11,9.9,18.3,9.9h2.2c12.1,0,22-9.8,22-22
	c0-4.2-1.2-8.3-3.5-11.8c-31.3-49-96.4-63.3-145.4-32s-63.3,96.4-32,145.4s96.4,63.3,145.4,32c12.9-8.2,23.8-19.2,32-32
	C591.6,154.3,588.6,140.8,578.4,134.2z"/>
<path class="st0" d="M351.9,2.6h-1.8c-12.1,0-22,9.8-22,22v166.6c0,12.1,9.8,22,22,22h1.8c12.1,0,22-9.8,22-22V24.5
	C373.9,12.4,364,2.6,351.9,2.6z"/>
<path class="st0" d="M288.3,167.5h-1.8c-5,0-9-4-9-9V24.9c0-12.1-9.8-22-22-22h-1.8c-12.1,0-22,9.8-22,22V186
	c0,15.2,12.3,27.5,27.5,27.5h29.1c12.1,0,22-9.8,22-22v-2C310.3,177.4,300.5,167.5,288.3,167.5z"/>
<path class="st0" d="M107.9,2.6C49.7,2.6,2.6,49.7,2.6,107.9s47.1,105.3,105.3,105.3c20.5,0,39.7-5.9,55.9-16l8,8.1
	c8.8,8.9,23.2,9,32.1,0.2l0.3-0.3c8.9-8.8,9-23.2,0.2-32.1l-8-8.1c10.6-16.5,16.8-36.1,16.8-57.1C213.2,49.7,166,2.6,107.9,2.6z
	 M162.8,130.9l-12.6-12.7c-8.8-8.9-23.2-9-32.1-0.2l-0.3,0.3c-8.9,8.8-9,23.2-0.2,32.1l12.5,12.7c-6.9,2.8-14.4,4.3-22.3,4.3
	c-32.9,0-59.5-26.6-59.5-59.5s26.6-59.5,59.5-59.5s59.5,26.6,59.5,59.5C167.4,116,165.8,123.8,162.8,130.9z"/>
</svg>
