<?xml version="1.0" encoding="utf-8"?>
<!-- Generator: Adobe Illustrator 25.2.3, SVG Export Plug-In . SVG Version: 6.00 Build 0)  -->
<svg version="1.1" id="Layer_1" xmlns="http://www.w3.org/2000/svg" xmlns:xlink="http://www.w3.org/1999/xlink" x="0px" y="0px"
	 viewBox="0 0 496.9 115.9" style="enable-background:new 0 0 496.9 115.9;" xml:space="preserve">
<style type="text/css">
	.st0{fill:#4CD8BD;}
</style>
<g>
	<path class="st0" d="M58.1,42.6c-4.3-1.6-9.8-3.2-16.6-4.8C35,36.4,30.1,34.9,27,33.4c-3.2-1.5-4.8-3.7-4.8-6.8
		c0-3,1.4-5.5,4.1-7.4s7-2.8,12.7-2.8c8.2,0,16.4,2.3,24.6,7L70,7.9C65.9,5.3,61.2,3.4,55.8,2c-5.4-1.3-11-2-16.6-2
		c-8.1,0-15,1.2-20.6,3.7S8.8,9.5,6,13.7s-4.2,8.8-4.2,14c0,5.9,1.5,10.6,4.6,14.2s6.8,6.1,11.1,7.7c4.3,1.6,9.9,3.2,16.6,4.8
		c4.4,1,7.9,1.9,10.5,2.8c2.6,0.8,4.7,2,6.3,3.4s2.5,3.2,2.5,5.3c0,2.9-1.4,5.2-4.2,6.9c-2.8,1.7-7.1,2.6-12.9,2.6
		c-5.2,0-10.5-0.9-15.7-2.5C15.3,71.1,10.8,68.8,7,66L0,81.5c4,3.1,9.2,5.5,15.8,7.4s13.3,2.8,20.3,2.8c8.1,0,15-1.2,20.7-3.7
		s9.9-5.8,12.7-10s4.2-8.8,4.2-13.9c0-5.9-1.6-10.6-4.6-14.1C66.1,46.7,62.4,44.2,58.1,42.6z"/>
	<path class="st0" d="M148.6,25.3c-5.4-2.9-11.5-4.3-18.1-4.3c-6.9,0-13,1.5-18.6,4.5S102,32.7,98.8,38C95.6,43.4,94,49.4,94,56.1
		c0,6.8,1.6,12.8,4.8,18.1s7.8,9.5,13.7,12.5c5.9,3,12.7,4.5,20.4,4.5c12.3,0,21.7-3.7,28.2-11l-10.5-11.4c-2.4,2.3-4.9,4-7.7,5
		s-5.9,1.6-9.5,1.6c-5.2,0-9.5-1.2-12.9-3.7c-3.5-2.5-5.7-5.8-6.6-10h51.6c0.3-3.3,0.4-5.1,0.4-5.3c0-7.1-1.5-13.3-4.6-18.7
		C158.3,32.3,154,28.2,148.6,25.3z M113.7,50.2c0.7-4.4,2.5-7.9,5.6-10.4c3-2.5,6.8-3.8,11.3-3.8c4.4,0,8.1,1.3,11.2,3.9
		s4.9,6,5.6,10.3C147.4,50.2,113.7,50.2,113.7,50.2z"/>
	<path class="st0" d="M233.3,21c-4.7,0-8.9,0.8-12.8,2.3c-3.9,1.6-7.1,3.8-9.8,6.7v-8h-18.9v68.2h19.8V56.5c0-6.1,1.5-10.7,4.4-13.8
		c3-3.1,6.9-4.6,11.9-4.6c4.5,0,7.9,1.3,10.3,4c2.4,2.7,3.5,6.7,3.5,12.1v36h19.8v-39c0-10-2.6-17.5-7.8-22.6
		C248.6,23.6,241.7,21,233.3,21z"/>
	<path class="st0" d="M322.8,75.6c-2.7,0-4.8-0.8-6.3-2.4s-2.2-3.8-2.2-6.7V38.8h17V23.6h-17V7h-19.8v16.6H284v15.2h10.5v28
		c0,8,2.2,14.1,6.7,18.3c4.4,4.1,10.7,6.2,18.8,6.2c3.1,0,6.1-0.4,8.9-1.1s5.2-1.8,7.2-3.2l-5.3-14C328.6,74.7,326,75.6,322.8,75.6z
		"/>
	<path class="st0" d="M378.8,31v-9H360v68.2h19.8V58.1c0-6.3,1.6-11.1,4.8-14.3c3.2-3.2,7.7-4.8,13.3-4.8c0.8,0,2.2,0.1,4.4,0.2V21
		c-5.2,0-9.9,0.9-13.9,2.5C384.4,25.3,381.2,27.8,378.8,31z"/>
	<path class="st0" d="M477.9,22l-19.3,46.3L439.5,22H419l29.5,68.7l-0.2,0.6c-1.4,3-2.9,5.2-4.6,6.5s-3.9,2-6.6,2
		c-1.9,0-3.9-0.4-5.9-1.1c-2-0.8-3.7-1.8-5.3-3.2l-7.2,14.1c2.2,1.9,5,3.5,8.5,4.6s7,1.7,10.5,1.7c6.5,0,12.1-1.6,16.7-4.8
		c4.6-3.2,8.5-8.8,11.6-16.6L496.9,22H477.9z"/>
</g>
</svg>
