<?xml version="1.0" encoding="utf-8"?>
<!-- Generator: Adobe Illustrator 25.4.1, SVG Export Plug-In . SVG Version: 6.00 Build 0)  -->
<svg version="1.1" id="Layer_1" xmlns="http://www.w3.org/2000/svg" xmlns:xlink="http://www.w3.org/1999/xlink" x="0px" y="0px"
	 viewBox="0 0 222.3 243.9" style="enable-background:new 0 0 222.3 243.9;" xml:space="preserve">
<style type="text/css">
	.st0{fill:#FFFFFF;}
</style>
<g>
	<polygon class="st0" points="194.8,134.8 221.2,105.4 221.2,0 0,0 0,90.4 26.1,90.4 1.9,117.8 1.9,214.6 222.3,214.6 222.3,134.8 	
		"/>
	<polygon class="st0" points="7.9,239.8 8.4,239 16,227.1 16,224.8 0.8,224.8 0.8,229 7.4,229 8.8,228.9 8.2,229.8 0.3,241.6 
		0.3,243.9 16.1,243.9 16.1,239.7 9.2,239.7 	"/>
	<polygon class="st0" points="18.8,243.9 33,243.9 33,239.7 24.5,239.7 24.5,236.3 31.1,236.3 31.1,232.3 24.5,232.3 24.5,229 
		33,229 33,224.8 18.8,224.8 	"/>
	<polygon class="st0" points="49.9,224.8 34.5,224.8 34.5,229.2 39.3,229.2 39.3,243.9 45,243.9 45,229.2 49.9,229.2 	"/>
	<path class="st0" d="M54.9,224.7L49.3,244H55l0.7-2.7h5.1l0.7,2.7h5.8l-5.7-19.3H54.9z M56.7,237.1l1.3-5.9l0.3-1.9l0.3,1.9
		l1.3,5.9H56.7L56.7,237.1z"/>
	<rect x="104.7" y="224.8" class="st0" width="5.6" height="19.1"/>
	<path class="st0" d="M121.1,224.8h-7.4v19.1h7.4c6.2,0,8.9-3.3,8.9-9.6C130,227.9,127.4,224.8,121.1,224.8z M121.2,239.8h-1.8
		v-10.9h1.8c2.2,0,3,1.6,3,5.4C124.1,238.2,123.3,239.8,121.2,239.8z"/>
	<rect x="70.4" y="240.5" class="st0" width="31.5" height="3.4"/>
</g>
</svg>
