<?xml version="1.0" encoding="utf-8"?>
<!-- Generator: Adobe Illustrator 25.2.3, SVG Export Plug-In . SVG Version: 6.00 Build 0)  -->
<svg version="1.1" id="Layer_1" xmlns="http://www.w3.org/2000/svg" xmlns:xlink="http://www.w3.org/1999/xlink" x="0px" y="0px"
	 viewBox="0 0 80 80" style="enable-background:new 0 0 80 80;" xml:space="preserve">
<style type="text/css">
	.st0{fill:none;}
	.st1{fill:#C3AF80;}
</style>
<g>
	<rect class="st0" width="80" height="80"/>
	<g>
		<g>
			<path class="st1" d="M31.35,38.53c0.4,0.19,0.89,0.02,1.08-0.38c0.96-2.02,2.66-3.54,4.77-4.29c2.11-0.75,4.39-0.63,6.42,0.34
				c2.65,1.26,4.44,3.86,4.73,6.76H29.99v0.81c0,3.84,2.24,7.39,5.69,9.03c1.37,0.65,2.84,0.98,4.31,0.98
				c1.13,0,2.26-0.19,3.35-0.58c2.52-0.89,4.54-2.71,5.69-5.12c0.19-0.41,0.02-0.89-0.38-1.08c-0.4-0.19-0.89-0.02-1.08,0.38
				c-0.96,2.02-2.65,3.54-4.77,4.29c-2.12,0.75-4.39,0.63-6.42-0.34c-2.69-1.28-4.45-3.82-4.73-6.75h18.36v-0.81
				c0-3.85-2.24-7.4-5.69-9.04c-2.42-1.15-5.14-1.3-7.66-0.41c-2.52,0.89-4.54,2.71-5.69,5.12C30.77,37.85,30.94,38.34,31.35,38.53z
				"/>
			
				<rect x="28.74" y="15.35" transform="matrix(0.9804 -0.1968 0.1968 0.9804 -2.7994 6.153)" class="st1" width="1.63" height="3.62"/>
			
				<rect x="18.79" y="17.37" transform="matrix(0.9012 -0.4334 0.4334 0.9012 -6.4003 10.3968)" class="st1" width="1.63" height="3.72"/>
			
				<rect x="9.58" y="20.93" transform="matrix(0.7772 -0.6293 0.6293 0.7772 -12.0772 11.6375)" class="st1" width="1.62" height="3.89"/>
			<rect x="39.19" y="14.5" class="st1" width="1.63" height="3.59"/>
			
				<rect x="48.64" y="16.35" transform="matrix(0.1966 -0.9805 0.9805 0.1966 23.6986 63.2448)" class="st1" width="3.62" height="1.63"/>
			
				<rect x="58.54" y="18.42" transform="matrix(0.4333 -0.9012 0.9012 0.4333 16.8903 65.3328)" class="st1" width="3.72" height="1.63"/>
			
				<rect x="67.66" y="22.06" transform="matrix(0.6296 -0.7769 0.7769 0.6296 8.0123 62.5509)" class="st1" width="3.89" height="1.62"/>
			<path class="st1" d="M40,57.39c21.74,0,34.25-14.95,34.38-15.1l0.42-0.52l-0.42-0.52C74.25,41.1,61.74,26.15,40,26.15
				c-21.74,0-34.25,14.95-34.38,15.11L5.2,41.77l0.42,0.52C5.75,42.43,18.26,57.39,40,57.39z M53.99,41.77
				c0,7.72-6.28,13.99-13.99,13.99c-7.72,0-13.99-6.28-13.99-13.99c0-7.72,6.28-13.99,13.99-13.99
				C47.72,27.77,53.99,34.05,53.99,41.77z M72.66,41.77c-2.01,2.18-10.56,10.57-24.33,13.19c4.37-2.77,7.29-7.64,7.29-13.19
				c0-5.55-2.91-10.42-7.29-13.19C62.1,31.2,70.65,39.59,72.66,41.77z M31.67,28.58c-4.38,2.77-7.29,7.64-7.29,13.19
				c0,5.55,2.91,10.42,7.29,13.19C17.89,52.34,9.34,43.94,7.34,41.77C9.34,39.59,17.88,31.19,31.67,28.58z"/>
			<path class="st1" d="M7.91,33.72C12.65,29.64,23.12,22.78,40,22.78s27.35,6.85,32.09,10.94c0.15,0.13,0.34,0.2,0.53,0.2
				c0.23,0,0.45-0.1,0.62-0.28c0.29-0.34,0.26-0.85-0.08-1.15C68.24,28.26,57.41,21.16,40,21.16s-28.24,7.1-33.15,11.33
				c-0.34,0.29-0.38,0.81-0.08,1.15C7.06,33.98,7.57,34.01,7.91,33.72z"/>
			<path class="st1" d="M73.18,49.07c-4.47,4.39-14.24,11.81-29.79,12.77c-0.42-1.48-1.77-2.58-3.39-2.58
				c-1.62,0-2.97,1.1-3.38,2.58c-15.55-0.97-25.32-8.38-29.79-12.77c-0.32-0.31-0.83-0.31-1.15,0.01c-0.31,0.32-0.31,0.83,0.01,1.15
				c3.63,3.56,10.63,9.05,21.22,11.74h-14v-2.35H6.57v6.33h6.34v-2.36h23.67c0.37,1.56,1.76,2.72,3.43,2.72
				c1.67,0,3.06-1.17,3.43-2.72h23.66v2.36h6.34v-6.33h-6.34v2.35h-14c10.59-2.69,17.59-8.18,21.22-11.74
				c0.32-0.31,0.32-0.83,0.01-1.15C74.01,48.76,73.5,48.75,73.18,49.07z M11.28,64.33H8.2v-3.09h3.08V64.33z M68.72,61.24h3.08v3.09
				h-3.08V61.24z M40,64.69c-1.05,0-1.9-0.86-1.9-1.91c0-1.05,0.85-1.91,1.9-1.91c1.05,0,1.91,0.86,1.91,1.91
				C41.91,63.84,41.05,64.69,40,64.69z"/>
		</g>
	</g>
</g>
</svg>
