<?xml version="1.0" encoding="utf-8"?>
<!-- Generator: Adobe Illustrator 25.2.3, SVG Export Plug-In . SVG Version: 6.00 Build 0)  -->
<svg version="1.1" id="Layer_1" xmlns="http://www.w3.org/2000/svg" xmlns:xlink="http://www.w3.org/1999/xlink" x="0px" y="0px"
	 viewBox="0 0 80 80" style="enable-background:new 0 0 80 80;" xml:space="preserve">
<style type="text/css">
	.st0{fill:none;}
	.st1{fill:#C3AF80;}
</style>
<g>
	<rect x="0.39" y="0.32" class="st0" width="80" height="80"/>
	<path class="st1" d="M63.31,29.86c-3.51-2.06-7.54-3.14-11.67-3.14c-4.06,0-7.89,1.06-11.25,2.91c-3.34-1.85-7.17-2.91-11.24-2.91
		c-1.29,0-2.56,0.11-3.77,0.32c-2.31,0.37-4.52,1.1-6.59,2.13C19.53,17.88,28.93,8.9,40.39,8.9c10.09,0,18.77,6.85,21.09,16.65
		c0.1,0.44,0.54,0.71,0.98,0.6c0.44-0.1,0.71-0.54,0.6-0.98c-2.5-10.54-11.82-17.9-22.67-17.9c-12.82,0-23.27,10.44-23.3,23.32
		c0,8.15,4.31,15.74,11.27,19.94c0.17,7.9,4.27,14.84,10.43,18.94c-2.97,1.48-6.28,2.26-9.64,2.26C17.18,71.73,7.45,62,7.45,50.04
		c0-5.96,2.49-11.7,6.82-15.76c0.33-0.31,0.34-0.82,0.04-1.15c-0.31-0.33-0.82-0.34-1.15-0.04C8.5,37.45,5.83,43.63,5.83,50.04
		c0,12.86,10.46,23.32,23.32,23.32c3.95,0,7.83-1.01,11.25-2.91c3.34,1.85,7.17,2.91,11.24,2.91c12.86,0,23.32-10.46,23.32-23.32
		C74.95,41.74,70.49,34.01,63.31,29.86z M18.73,31.03c2.15-1.19,4.46-2,6.91-2.39c1.13-0.2,2.31-0.29,3.5-0.29
		c3.45,0,6.71,0.83,9.6,2.28c-5.12,3.4-8.86,8.78-10.03,15.19c-0.08,0.44,0.21,0.86,0.65,0.94c0.43,0.07,0.86-0.21,0.94-0.65
		c1.14-6.26,4.91-11.46,10.04-14.59C46.5,35.25,50.63,41.93,50.8,49.6c-3.17,1.75-6.75,2.68-10.41,2.68c-3.82,0-7.57-1-10.84-2.91
		C23,45.59,18.9,38.61,18.73,31.03z M51.64,71.73c-11.47,0-20.87-8.97-21.61-20.27c3.2,1.59,6.75,2.43,10.36,2.43
		c3.61,0,7.16-0.84,10.36-2.43c-0.37,5.55-2.85,10.8-6.96,14.56c-0.33,0.3-0.35,0.82-0.05,1.15c0.16,0.18,0.38,0.26,0.6,0.26
		c0.2,0,0.39-0.07,0.55-0.21c4.79-4.39,7.55-10.64,7.56-17.19c0-8.1-4.16-15.25-10.44-19.43c2.92-1.45,6.19-2.27,9.63-2.27
		c3.67,0,7.26,0.93,10.43,2.69c-0.12,5.86-2.51,11.29-6.8,15.32c-0.33,0.31-0.34,0.82-0.04,1.15c0.16,0.17,0.38,0.26,0.59,0.26
		c0.2,0,0.4-0.07,0.56-0.22c4.39-4.12,6.92-9.61,7.27-15.56c6.01,3.99,9.69,10.79,9.69,18.06C73.33,62,63.6,71.73,51.64,71.73z"/>
</g>
</svg>
