<?xml version="1.0" encoding="utf-8"?>
<!-- Generator: Adobe Illustrator 25.2.3, SVG Export Plug-In . SVG Version: 6.00 Build 0)  -->
<svg version="1.1" id="Layer_1" xmlns="http://www.w3.org/2000/svg" xmlns:xlink="http://www.w3.org/1999/xlink" x="0px" y="0px"
	 viewBox="0 0 80 80" style="enable-background:new 0 0 80 80;" xml:space="preserve">
<style type="text/css">
	.st0{fill:none;}
	.st1{fill:#C3AF80;}
</style>
<g>
	<rect x="0.39" y="0.32" class="st0" width="80" height="80"/>
	<g>
		<g>
			<path class="st1" d="M61.36,29.14l-0.81-1.41l-0.68,0.39L41.2,17.35v-1.41h-1.62v1.41L20.9,28.13l-0.68-0.39l-0.81,1.41
				l0.68,0.39V51.1l-0.68,0.39l0.81,1.41l0.68-0.39l18.67,10.78v1.41h1.62v-1.41L59.88,52.5l0.68,0.39l0.81-1.41l-0.68-0.39V29.53
				L61.36,29.14z M50.13,33.75L41.2,28.6v-9.37l17.05,9.84L50.13,33.75z M39.58,28.6l-8.93,5.16l-8.12-4.69l17.05-9.84V28.6z
				 M31.46,36.1l8.12,4.69v9.37l-8.12-4.69V36.1z M41.2,40.78l8.12-4.69v9.37l-8.12,4.69V40.78z M40.39,39.38l-8.12-4.69L40.39,30
				l8.12,4.69L40.39,39.38z M21.72,30.47l8.12,4.69v11.25l9.74,5.62v9.37L21.72,51.1V30.47z M41.2,61.41v-9.37l9.74-5.62V35.16
				l8.12-4.69V51.1L41.2,61.41z"/>
			
				<rect x="68.03" y="22.74" transform="matrix(0.8659 -0.5002 0.5002 0.8659 -2.4706 37.8839)" class="st1" width="2.79" height="1.63"/>
			
				<rect x="63.19" y="25.53" transform="matrix(0.866 -0.5001 0.5001 0.866 -4.5179 35.8331)" class="st1" width="2.79" height="1.63"/>
			
				<rect x="72.97" y="20.33" transform="matrix(0.8663 -0.4996 0.4996 0.8663 -0.7194 39.5974)" class="st1" width="1.25" height="1.62"/>
			
				<rect x="6.37" y="20.52" transform="matrix(0.4999 -0.8661 0.8661 0.4999 -14.7195 16.7924)" class="st1" width="1.62" height="1.25"/>
			
				<rect x="15.38" y="24.95" transform="matrix(0.5001 -0.866 0.866 0.5001 -14.7192 27.1923)" class="st1" width="1.63" height="2.79"/>
			<rect x="10.54" y="22.15" transform="matrix(0.5 -0.866 0.866 0.5 -14.7192 21.6071)" class="st1" width="1.63" height="2.79"/>
			<rect x="39.58" y="72.19" class="st1" width="1.62" height="1.88"/>
			<rect x="39.58" y="67.19" class="st1" width="1.62" height="2.5"/>
			
				<rect x="68.62" y="55.68" transform="matrix(0.5001 -0.866 0.866 0.5001 -14.7228 88.657)" class="st1" width="1.63" height="2.79"/>
			<rect x="63.78" y="52.89" transform="matrix(0.5 -0.866 0.866 0.5 -14.7183 83.0797)" class="st1" width="1.63" height="2.79"/>
			
				<rect x="72.79" y="58.86" transform="matrix(0.4999 -0.8661 0.8661 0.4999 -14.7161 93.4902)" class="st1" width="1.62" height="1.25"/>
			
				<rect x="6.56" y="58.68" transform="matrix(0.8663 -0.4996 0.4996 0.8663 -28.7598 11.5439)" class="st1" width="1.25" height="1.62"/>
			
				<rect x="14.8" y="53.47" transform="matrix(0.866 -0.5001 0.5001 0.866 -24.9789 15.3746)" class="st1" width="2.79" height="1.63"/>
			
				<rect x="9.96" y="56.27" transform="matrix(0.8659 -0.5002 0.5002 0.8659 -27.0297 13.3327)" class="st1" width="2.79" height="1.63"/>
			<rect x="39.58" y="6.57" class="st1" width="1.62" height="1.87"/>
			<rect x="39.58" y="10.94" class="st1" width="1.62" height="2.5"/>
		</g>
	</g>
</g>
</svg>
