<?xml version="1.0" encoding="utf-8"?>
<!-- Generator: Adobe Illustrator 25.2.3, SVG Export Plug-In . SVG Version: 6.00 Build 0)  -->
<svg version="1.1" id="Layer_1" xmlns="http://www.w3.org/2000/svg" xmlns:xlink="http://www.w3.org/1999/xlink" x="0px" y="0px"
	 viewBox="0 0 80 80" style="enable-background:new 0 0 80 80;" xml:space="preserve">
<style type="text/css">
	.st0{fill:none;}
	.st1{fill:#C3AF80;}
</style>
<g>
	<rect x="0.39" y="0.32" class="st0" width="80" height="80"/>
	<g>
		<g>
			<path class="st1" d="M57.07,19.32H23.71l-7.7,14.12l24.38,28.31l24.38-28.31L57.07,19.32z M47.4,34.15l-7.01,23.51l-7.01-23.51
				H47.4z M33.74,32.52l6.65-10.84l6.65,10.84H33.74z M41.84,20.95h13.3l-6.65,10.84L41.84,20.95z M32.29,31.78l-6.65-10.84h13.3
				L32.29,31.78z M30.84,32.52H18.36l5.87-10.77L30.84,32.52z M31.68,34.15l6.84,22.94L18.76,34.15H31.68z M49.1,34.15h12.92
				L42.25,57.09L49.1,34.15z M49.94,32.52l6.61-10.77l5.87,10.77H49.94z"/>
			<rect x="43.09" y="9.23" class="st1" width="5.4" height="1.62"/>
			<rect x="53.89" y="9.23" class="st1" width="5.4" height="1.62"/>
			<rect x="32.28" y="9.23" class="st1" width="5.4" height="1.62"/>
			<rect x="21.48" y="9.23" class="st1" width="5.4" height="1.62"/>
			<rect x="32.28" y="69.78" class="st1" width="5.4" height="1.62"/>
			<rect x="53.89" y="69.78" class="st1" width="5.4" height="1.62"/>
			<rect x="21.48" y="69.78" class="st1" width="5.4" height="1.62"/>
			<rect x="43.09" y="69.78" class="st1" width="5.4" height="1.62"/>
			<path class="st1" d="M71.48,64.62h-1.63v1.69h-3.47v3.47h-1.69v1.62h1.69v3.48h8.57v-8.57h-3.48V64.62z M73.33,73.25h-5.32v-5.32
				h5.32V73.25z"/>
			<rect x="69.85" y="32.21" class="st1" width="1.63" height="5.4"/>
			<rect x="69.85" y="53.82" class="st1" width="1.63" height="5.4"/>
			<rect x="69.85" y="21.41" class="st1" width="1.63" height="5.4"/>
			<rect x="69.85" y="43.02" class="st1" width="1.63" height="5.4"/>
			<rect x="9.3" y="43.02" class="st1" width="1.63" height="5.4"/>
			<rect x="9.3" y="21.41" class="st1" width="1.63" height="5.4"/>
			<rect x="9.3" y="32.21" class="st1" width="1.63" height="5.4"/>
			<rect x="9.3" y="53.82" class="st1" width="1.63" height="5.4"/>
			<path class="st1" d="M9.3,16.01h1.63v-1.69h3.48v-3.47h1.68V9.23H14.4V5.75H5.83v8.57H9.3V16.01z M7.45,7.38h5.32v5.32H7.45V7.38
				z"/>
			<path class="st1" d="M66.38,5.75v3.47h-1.69v1.62h1.69v3.47h3.47v1.69h1.63v-1.69h3.48V5.75H66.38z M73.33,12.7h-5.32V7.38h5.32
				V12.7z"/>
			<path class="st1" d="M14.4,66.31h-3.48v-1.69H9.3v1.69H5.83v8.57h8.57V71.4h1.68v-1.62H14.4V66.31z M12.77,73.25H7.45v-5.32h5.32
				V73.25z"/>
		</g>
	</g>
</g>
</svg>
