<?xml version="1.0" encoding="utf-8"?>
<!-- Generator: Adobe Illustrator 25.2.3, SVG Export Plug-In . SVG Version: 6.00 Build 0)  -->
<svg version="1.1" id="Layer_1" xmlns="http://www.w3.org/2000/svg" xmlns:xlink="http://www.w3.org/1999/xlink" x="0px" y="0px"
	 viewBox="0 0 80 80" style="enable-background:new 0 0 80 80;" xml:space="preserve">
<style type="text/css">
	.st0{fill:none;}
	.st1{fill:#C3AF80;}
</style>
<g>
	<rect x="0.39" y="0.32" class="st0" width="80" height="80"/>
	<g>
		<g>
			<rect x="30.78" y="61.02" class="st1" width="19" height="1.63"/>
			<rect x="30.78" y="64.7" class="st1" width="19" height="1.63"/>
			<path class="st1" d="M30.78,68.38v1.63h4.33l0.74,3.68h8.85l0.74-3.68h4.33v-1.63H30.78z M43.79,70.01l-0.41,2.05h-6.19
				l-0.41-2.05H43.79z"/>
			<rect x="39.46" y="11.72" class="st1" width="1.62" height="4.69"/>
			
				<rect x="48.11" y="16.61" transform="matrix(0.595 -0.8037 0.8037 0.595 6.4306 47.613)" class="st1" width="4.69" height="1.63"/>
			
				<rect x="54.73" y="27.1" transform="matrix(0.9816 -0.1909 0.1909 0.9816 -4.2788 11.4071)" class="st1" width="4.69" height="1.62"/>
			
				<rect x="54.7" y="36.62" transform="matrix(0.4555 -0.8902 0.8902 0.4555 -4.4635 70.6378)" class="st1" width="1.63" height="4.69"/>
			
				<rect x="29.29" y="15.08" transform="matrix(0.8036 -0.5951 0.5951 0.8036 -4.4596 21.3369)" class="st1" width="1.63" height="4.69"/>
			<path class="st1" d="M65.81,6.94c-4.21,0-7.76,2.87-8.82,6.75C52.5,9.4,46.5,6.95,40.27,6.95c-10.85,0-20.31,7.2-23.24,17.58
				H5.83v21.28h15.28c0.68,0.89,1.42,1.74,2.28,2.59c2.97,2.91,5.14,6.09,6.42,9.47l0.41,1.1h20.13l0.41-1.09
				c1.29-3.38,3.45-6.57,6.43-9.48c4.69-4.57,7.27-10.71,7.27-17.28c0-2.09-0.28-4.15-0.8-6.15c0.69,0.17,1.41,0.27,2.16,0.27
				c5.04,0,9.15-4.1,9.15-9.15S70.85,6.94,65.81,6.94z M7.45,26.15h18.03v18.03H7.45V26.15z M40.28,36.72
				c0.69,0,1.26,0.57,1.26,1.26c0,0.69-0.57,1.26-1.26,1.26c-0.69,0-1.26-0.57-1.26-1.26C39.02,37.29,39.58,36.72,40.28,36.72z
				 M39.47,35.62c-0.98,0.34-1.7,1.26-1.7,2.36c0,1.38,1.13,2.51,2.51,2.51c1.38,0,2.51-1.13,2.51-2.51c0-1.1-0.71-2.02-1.7-2.36
				v-9.04l6.22,9.81l-3.55,7.1H36.8l-3.55-7.1l6.21-9.81V35.62z M37.11,45.11h6.33v3.21h-6.33V45.11z M36.97,49.95h6.62l1.39,7.37
				l-9.41,0.02L36.97,49.95z M62.82,31.12c0,6.13-2.41,11.85-6.78,16.12c-3.14,3.07-5.43,6.46-6.81,10.07l-2.59,0.01l-1.56-8.28
				v-4.54l4.1-8.2l-8.89-14.04l-8.89,14.04l4.1,8.2v4.57l-1.57,8.28l-2.58,0.01l-0.02-0.04c-1.37-3.61-3.66-6.99-6.81-10.06
				c-0.48-0.47-0.92-0.95-1.33-1.43h3.92V24.53h-8.39C21.6,15.09,30.31,8.57,40.27,8.57c6.19,0,12.15,2.59,16.41,7.09
				c-0.01,0.14-0.02,0.29-0.02,0.43c0,3.59,2.08,6.69,5.1,8.19C62.45,26.49,62.82,28.79,62.82,31.12z M65.81,23.62
				c-4.15,0-7.52-3.37-7.52-7.52s3.38-7.52,7.52-7.52c4.15,0,7.52,3.37,7.52,7.52S69.95,23.62,65.81,23.62z"/>
			<path class="st1" d="M52.56,64.01h19.3l-9.65-16.9L52.56,64.01z M55.36,62.38l6.85-12l6.85,12H55.36z"/>
		</g>
	</g>
</g>
</svg>
