<?xml version="1.0" encoding="utf-8"?>
<!-- Generator: Adobe Illustrator 25.2.3, SVG Export Plug-In . SVG Version: 6.00 Build 0)  -->
<svg version="1.1" id="Layer_1" xmlns="http://www.w3.org/2000/svg" xmlns:xlink="http://www.w3.org/1999/xlink" x="0px" y="0px"
	 viewBox="0 0 80 80" style="enable-background:new 0 0 80 80;" xml:space="preserve">
<style type="text/css">
	.st0{fill:none;}
	.st1{fill:#C3AF80;}
</style>
<g>
	<rect x="0.39" y="0.32" class="st0" width="80" height="80"/>
	<g>
		<g>
			<path class="st1" d="M67.61,37.98c2.59-1.64,4.31-4.52,4.31-7.8c0-2.77-1.23-5.5-3.29-7.31c-0.95-0.83-2.02-1.4-3.15-1.71
				c-1.02-6.39-6.42-11-12.86-11.06c-1.06-2.55-3.57-4.35-6.5-4.35c-2.81,0-5.24,1.66-6.36,4.05L38.09,9.2
				c-4.77-1.74-9.86-0.4-13.14,3.05H24.8c-3.43,0-6.67,1.49-8.91,4.08c-2.13,2.48-3.12,5.71-2.77,8.95c-1.38,1.11-2.28,2.8-2.28,4.7
				c0,1.23,0.37,2.38,1.01,3.34l-0.17,0.18c-3.74,4.08-4.32,10.03-1.52,14.73c-0.83,0.8-1.36,1.93-1.36,3.17
				c0,2.44,1.98,4.42,4.42,4.42h4.17c0.22,2.05,1.51,7.3,8.79,9.44c0.78,0.23,1.6,0.34,2.47,0.34c2.35,0,5.06-0.85,8.07-2.51
				l-3.16,10.73c-0.11,0.37,0.05,0.76,0.39,0.94c0.12,0.07,0.25,0.1,0.39,0.1c0.23,0,0.46-0.1,0.62-0.29l20.6-24.38h10.6
				c3.42,0,6.21-2.78,6.21-6.21C72.37,41.08,70.33,38.64,67.61,37.98z M36.21,70.59l6-20.38h11.22L36.21,70.59z M47,28.2l-6,20.38
				H29.77L47,28.2z M66.16,48.59H42.69l6.96-23.62c0.11-0.37-0.05-0.76-0.39-0.94c-0.34-0.18-0.76-0.1-1.01,0.19L33.23,41.98H22.12
				c-1.79,0-3.4-1.06-4.11-2.7l-1.49,0.64c0.97,2.24,3.16,3.68,5.6,3.68h9.73l-4.45,5.27c-0.21,0.24-0.25,0.58-0.12,0.87
				c0.13,0.29,0.42,0.47,0.74,0.47h12.49l-3.13,10.62c-4.38,2.72-8,3.69-10.75,2.88c-6.28-1.85-7.43-6.13-7.63-7.89h4.76
				c1.85,1.77,4.35,2.87,7.1,2.87h0.94v-1.62h-0.94c-4.77,0-8.66-3.88-8.66-8.66h-1.63c0,2.15,0.66,4.14,1.79,5.79h-9.16
				c-1.54,0-2.79-1.25-2.79-2.79c0-1.54,1.25-2.79,2.79-2.79h0.8v-1.62h-0.8c-0.6,0-1.18,0.12-1.71,0.34
				c-2.38-4.07-1.87-9.21,1.37-12.74l0.06-0.07c1.07,0.93,2.44,1.51,3.96,1.51h11.12v-1.62H16.9c-2.45,0-4.44-1.99-4.44-4.44
				c0-2.45,1.99-4.44,4.44-4.44h9.01c4.97,0,9.02-4.04,9.02-9.02H33.3c0,4.08-3.32,7.39-7.39,7.39H16.9c-0.79,0-1.54,0.16-2.23,0.44
				c-0.09-2.53,0.77-5.02,2.45-6.97c1.66-1.93,3.97-3.14,6.47-3.44c-0.46,0.7-0.87,1.46-1.19,2.28l1.51,0.6
				c2.15-5.42,8.13-8.11,13.61-6.11l1.71,0.62c-0.1,0.47-0.15,0.95-0.15,1.44v2.82c0,3.14-1.11,6.19-3.12,8.6l1.25,1.04
				c2.25-2.7,3.49-6.13,3.49-9.64v-2.82c0-2.98,2.43-5.41,5.41-5.41c2.98,0,5.41,2.43,5.41,5.41v2.86c0,2.78,1.87,5.23,4.54,5.98
				l0.44-1.57c-1.97-0.55-3.35-2.37-3.35-4.42v-2.86c0-0.36-0.04-0.71-0.09-1.05c5.26,0.25,9.63,3.96,10.72,9.18
				c-0.4-0.01-0.8-0.01-1.21,0.05c-3.25,0.43-5.99,3.22-5.99,6.09h1.63c0-1.83,1.88-4.12,4.58-4.48c1.68-0.23,3.38,0.32,4.77,1.53
				c1.71,1.5,2.74,3.77,2.74,6.08c0,4.2-3.41,7.61-7.61,7.61h-2.36v1.62h5.84c2.53,0,4.58,2.06,4.58,4.58S68.69,48.59,66.16,48.59z"
				/>
			<path class="st1" d="M29.83,28.11l0.15,1.62c0.02,0,2.03-0.16,3.28,1.04c0.77,0.74,1.14,1.88,1.07,3.39l1.62,0.07
				c0.08-2-0.45-3.56-1.58-4.64C32.57,27.88,29.94,28.1,29.83,28.11z"/>
			<path class="st1" d="M62.13,30.58l-1.38-0.85c-0.8,1.31-2.26,2.12-3.79,2.12h-4.61v1.62h4.61
				C59.05,33.47,61.03,32.37,62.13,30.58z"/>
			<rect x="51.07" y="37.8" class="st1" width="1.96" height="1.62"/>
		</g>
	</g>
</g>
</svg>
